<svg width="21" height="20" viewBox="0 0 21 20" fill="none" xmlns="http://www.w3.org/2000/svg">
<path fill-rule="evenodd" clip-rule="evenodd" d="M10.375 20C5.66095 20 3.30393 20 1.83947 18.5355C0.375 17.0711 0.375 14.714 0.375 10C0.375 5.28595 0.375 2.92893 1.83947 1.46447C3.30393 0 5.66095 0 10.375 0C15.089 0 17.4461 0 18.9105 1.46447C20.375 2.92893 20.375 5.28595 20.375 10C20.375 14.714 20.375 17.0711 18.9105 18.5355C17.4461 20 15.089 20 10.375 20ZM7.125 4.49998C7.125 4.08576 6.78921 3.74998 6.375 3.74998C5.96079 3.74998 5.625 4.08576 5.625 4.49998L5.625 5.74999H4.375C3.96079 5.74999 3.625 6.08578 3.625 6.49999C3.625 6.91421 3.96079 7.24999 4.375 7.24999L5.625 7.24999V8.49998C5.625 8.91419 5.96079 9.24998 6.375 9.24998C6.78921 9.24998 7.125 8.91419 7.125 8.49998V7.24999H8.375C8.78921 7.24999 9.125 6.91421 9.125 6.49999C9.125 6.08578 8.78921 5.74999 8.375 5.74999H7.125L7.125 4.49998ZM12.375 5.74998C11.9608 5.74998 11.625 6.08576 11.625 6.49998C11.625 6.91419 11.9608 7.24998 12.375 7.24998H16.375C16.7892 7.24998 17.125 6.91419 17.125 6.49998C17.125 6.08576 16.7892 5.74998 16.375 5.74998H12.375ZM12.375 11.75C11.9608 11.75 11.625 12.0858 11.625 12.5C11.625 12.9142 11.9608 13.25 12.375 13.25H16.375C16.7892 13.25 17.125 12.9142 17.125 12.5C17.125 12.0858 16.7892 11.75 16.375 11.75H12.375ZM5.40533 11.9697C5.11244 11.6768 4.63756 11.6768 4.34467 11.9697C4.05178 12.2626 4.05178 12.7374 4.34467 13.0303L5.31435 14L4.34468 14.9697C4.05179 15.2626 4.05179 15.7374 4.34468 16.0303C4.63758 16.3232 5.11245 16.3232 5.40534 16.0303L6.37501 15.0607L7.34466 16.0303C7.63755 16.3232 8.11242 16.3232 8.40532 16.0303C8.69821 15.7374 8.69821 15.2626 8.40532 14.9697L7.43567 14L8.40533 13.0303C8.69822 12.7374 8.69822 12.2626 8.40533 11.9697C8.11244 11.6768 7.63756 11.6768 7.34467 11.9697L6.37501 12.9393L5.40533 11.9697ZM12.375 14.75C11.9608 14.75 11.625 15.0858 11.625 15.5C11.625 15.9142 11.9608 16.25 12.375 16.25H16.375C16.7892 16.25 17.125 15.9142 17.125 15.5C17.125 15.0858 16.7892 14.75 16.375 14.75H12.375Z" fill="#3E97FF"/>
</svg>
