<svg width="20" height="20" viewBox="0 0 20 20" fill="none" xmlns="http://www.w3.org/2000/svg">
<path fill-rule="evenodd" clip-rule="evenodd" d="M11.9038 0.152241C11.5335 0 11.064 0 10.125 0C9.18602 0 8.71653 0 8.34619 0.152241C7.8524 0.355229 7.46009 0.744577 7.25556 1.23463C7.16219 1.45834 7.12565 1.7185 7.11135 2.09799C7.09034 2.65568 6.80216 3.17189 6.31517 3.45093C5.82818 3.72996 5.23364 3.71954 4.73649 3.45876C4.39818 3.2813 4.15289 3.18262 3.91099 3.15102C3.38109 3.08178 2.84518 3.22429 2.42116 3.5472C2.10314 3.78938 1.86839 4.1929 1.3989 4.99993C0.929414 5.80697 0.694669 6.21048 0.642347 6.60491C0.572585 7.1308 0.716181 7.66266 1.04155 8.08348C1.19006 8.27556 1.39877 8.43703 1.7227 8.63902C2.19891 8.93598 2.50532 9.44186 2.50529 10C2.50526 10.5581 2.19886 11.0639 1.7227 11.3608C1.39872 11.5629 1.18997 11.7244 1.04145 11.9165C0.716082 12.3373 0.572486 12.8691 0.642248 13.395C0.69457 13.7894 0.929315 14.193 1.3988 15C1.86829 15.807 2.10304 16.2106 2.42106 16.4527C2.84508 16.7756 3.38099 16.9181 3.91089 16.8489C4.15278 16.8173 4.39805 16.7186 4.73633 16.5412C5.23352 16.2804 5.8281 16.27 6.31512 16.549C6.80214 16.8281 7.09033 17.3443 7.11135 17.9021C7.12565 18.2815 7.16219 18.5417 7.25556 18.7654C7.46009 19.2554 7.8524 19.6448 8.34619 19.8478C8.71653 20 9.18602 20 10.125 20C11.064 20 11.5335 20 11.9038 19.8478C12.3976 19.6448 12.7899 19.2554 12.9944 18.7654C13.0878 18.5417 13.1244 18.2815 13.1387 17.902C13.1597 17.3443 13.4478 16.8281 13.9348 16.549C14.4218 16.2699 15.0164 16.2804 15.5136 16.5412C15.8519 16.7186 16.0971 16.8172 16.339 16.8488C16.8689 16.9181 17.4048 16.7756 17.8288 16.4527C18.1469 16.2105 18.3816 15.807 18.8511 14.9999C19.3206 14.1929 19.5553 13.7894 19.6077 13.395C19.6774 12.8691 19.5338 12.3372 19.2085 11.9164C19.0599 11.7243 18.8512 11.5628 18.5272 11.3608C18.0511 11.0639 17.7447 10.558 17.7447 9.99991C17.7447 9.44185 18.0511 8.93608 18.5272 8.63919C18.8513 8.43715 19.06 8.27566 19.2086 8.08355C19.5339 7.66273 19.6775 7.13087 19.6078 6.60497C19.5554 6.21055 19.3207 5.80703 18.8512 5C18.3817 4.19297 18.147 3.78945 17.8289 3.54727C17.4049 3.22436 16.869 3.08185 16.3391 3.15109C16.0972 3.18269 15.8519 3.28136 15.5137 3.4588C15.0165 3.71959 14.4219 3.73002 13.9349 3.45096C13.4479 3.17191 13.1597 2.65566 13.1386 2.09794C13.1243 1.71848 13.0878 1.45833 12.9944 1.23463C12.7899 0.744577 12.3976 0.355229 11.9038 0.152241ZM10.125 13C11.7945 13 13.1478 11.6569 13.1478 10C13.1478 8.34315 11.7945 7 10.125 7C8.45553 7 7.10216 8.34315 7.10216 10C7.10216 11.6569 8.45553 13 10.125 13Z" fill="#3E97FF"/>
</svg>
