<svg width="21" height="20" viewBox="0 0 21 20" fill="none" xmlns="http://www.w3.org/2000/svg">
<path d="M10.2751 16.1612L10.2751 16.1612L17.671 8.76532C16.6644 8.34637 15.4722 7.6582 14.3447 6.53068C13.217 5.40298 12.5287 4.21058 12.1098 3.2039L4.71382 10.5999L4.71379 10.5999C4.13666 11.1771 3.84807 11.4657 3.5999 11.7838C3.30713 12.1592 3.05614 12.5653 2.85134 12.995C2.67773 13.3593 2.54868 13.7465 2.29056 14.5208L0.929448 18.6042C0.802428 18.9852 0.901605 19.4053 1.18563 19.6894C1.46966 19.9734 1.88978 20.0726 2.27084 19.9456L6.35418 18.5844C7.12851 18.3263 7.5157 18.1973 7.87998 18.0237C8.30969 17.8189 8.71582 17.5679 9.09116 17.2751C9.40935 17.0269 9.69796 16.7383 10.2751 16.1612Z" fill="#3E97FF"/>
<path d="M19.7232 6.71306C21.2589 5.17735 21.2589 2.68748 19.7232 1.15178C18.1875 -0.383926 15.6976 -0.383926 14.1619 1.15178L13.2749 2.03882C13.2871 2.0755 13.2996 2.11268 13.3127 2.15035C13.6378 3.0875 14.2513 4.31601 15.4053 5.47002C16.5593 6.62403 17.7878 7.23749 18.725 7.56262C18.7625 7.57563 18.7995 7.58817 18.836 7.60026L19.7232 6.71306Z" fill="#3E97FF"/>
</svg>
