<svg width="17" height="20" viewBox="0 0 17 20" fill="none" xmlns="http://www.w3.org/2000/svg">
<path d="M16.125 16C16.125 18.2091 12.5433 20 8.125 20C3.70672 20 0.125 18.2091 0.125 16V11.974C0.627214 12.5906 1.33995 13.1029 2.13274 13.4992C3.70504 14.2854 5.82467 14.75 8.125 14.75C10.4253 14.75 12.545 14.2854 14.1173 13.4992C14.9101 13.1029 15.6228 12.5906 16.125 11.974V16Z" fill="#3E97FF"/>
<path d="M8.125 8.75C10.4253 8.75 12.545 8.2854 14.1173 7.49925C14.9101 7.10285 15.6228 6.59059 16.125 5.97397V10C16.125 10.5 14.3393 11.5911 13.4464 12.1576C12.1233 12.8192 10.243 13.25 8.125 13.25C6.00705 13.25 4.12668 12.8192 2.80356 12.1576C1.625 11.5683 0.125 10.5 0.125 10V5.97397C0.627214 6.59059 1.33995 7.10285 2.13274 7.49925C3.70504 8.2854 5.82467 8.75 8.125 8.75Z" fill="#3E97FF"/>
<path d="M13.4464 6.15761C12.1233 6.81917 10.243 7.25 8.125 7.25C6.00705 7.25 4.12668 6.81917 2.80356 6.15761C2.28884 5.95596 1.13137 5.31492 0.326499 4.27935C0.18954 4.10313 0.130756 3.87853 0.164885 3.65798C0.18783 3.50969 0.219797 3.35695 0.260784 3.26226C0.953154 1.40554 4.2108 0 8.125 0C12.0392 0 15.2968 1.40554 15.9892 3.26226C16.0302 3.35695 16.0622 3.50969 16.0851 3.65798C16.1192 3.87853 16.0605 4.10313 15.9235 4.27935C15.1186 5.31492 13.9612 5.95596 13.4464 6.15761Z" fill="#3E97FF"/>
</svg>
